<svg id="Layer_1" data-name="Layer 1" xmlns="http://www.w3.org/2000/svg" xmlns:xlink="http://www.w3.org/1999/xlink" viewBox="0 0 15.04 18.89"><defs><clipPath id="clip-path"><rect x="946" y="526" width="28" height="28" style="fill:none"/></clipPath><clipPath id="clip-path-2" transform="translate(-952 -531)"><path d="M957.51,544.89a.48.48,0,0,0,.36-.15l4-3.91a.53.53,0,0,0,.17-.38.55.55,0,0,0-.16-.39l-4-3.91a.5.5,0,0,0-.37-.15.51.51,0,0,0-.51.51.56.56,0,0,0,.15.37l3.65,3.57L957.15,544a.56.56,0,0,0-.15.37.51.51,0,0,0,.51.51Z" style="fill:none;clip-path:url(#clip-path)"/></clipPath></defs><g style="clip-path:url(#clip-path-2)"><rect width="15.04" height="18.89" style="fill:#0b2d46"/></g></svg>