<svg id="Layer_1" data-name="Layer 1" xmlns="http://www.w3.org/2000/svg" xmlns:xlink="http://www.w3.org/1999/xlink" viewBox="0 0 15.04 18.89"><defs><clipPath id="clip-path"><rect x="946" y="526" width="28" height="28" style="fill:none"/></clipPath><clipPath id="clip-path-2" transform="translate(-952 -531)"><path d="M961.53,536a.49.49,0,0,0-.36.15l-4,3.91a.53.53,0,0,0-.17.38.52.52,0,0,0,.17.39l4,3.91a.48.48,0,0,0,.36.15.51.51,0,0,0,.51-.51.56.56,0,0,0-.15-.37l-3.65-3.57,3.65-3.56a.56.56,0,0,0,.15-.37.5.5,0,0,0-.51-.51Z" style="fill:none;clip-path:url(#clip-path)"/></clipPath></defs><g style="clip-path:url(#clip-path-2)"><rect width="15.04" height="18.89" style="fill:#0b2d46"/></g></svg>